<svg width="65" height="60" fill="none" xmlns="http://www.w3.org/2000/svg"><path fill-rule="evenodd" clip-rule="evenodd" d="m63.417 15.764-5.681 7.944-5.682-7.944h3.098C54.916 9.86 50.039 5.139 44.08 5.139c-5.03 0-9.294 3.375-10.641 7.972a23.155 23.155 0 0 0-5.057-1.014c.194-.736.444-1.472.75-2.18a16.212 16.212 0 0 1 3.473-5.153 15.99 15.99 0 0 1 5.154-3.472C39.759.43 41.885 0 44.079 0a16.215 16.215 0 0 1 11.475 4.75 16.212 16.212 0 0 1 3.474 5.153 15.738 15.738 0 0 1 1.264 5.86h3.125ZM55.471 60v-3.417H35.884c.139-.07.277-.125.416-.194a23.59 23.59 0 0 0 5.835-3.945c.236-.222.458-.43.667-.639a18.742 18.742 0 0 0 1.528-1.694H55.47v-3.417l9.308 6.653L55.47 60ZM48.247 35.32c0 2.958-.583 5.833-1.722 8.54a21.773 21.773 0 0 1-4.029 6.265l-.667.708c-.208.209-.416.403-.625.611a22.12 22.12 0 0 1-5.473 3.709c-.278.139-.57.264-.861.389-.014 0-.014.013-.028.013a13.468 13.468 0 0 1-5.28 1.056H.669v-6.458h26.825c8.113 0 14.767-6.486 14.878-14.598v-.208c0-8.861-7.196-16.056-16.059-16.056-8.863-.027-16.059 7.153-16.059 16.028h3.723l-6.654 9.306-6.654-9.306H4.39c0-2.958.583-5.833 1.722-8.541a21.96 21.96 0 0 1 4.696-6.973 21.738 21.738 0 0 1 6.973-4.694 21.936 21.936 0 0 1 8.544-1.722c.597 0 1.18.027 1.764.07a21.519 21.519 0 0 1 6.766 1.666 21.965 21.965 0 0 1 6.973 4.694 21.734 21.734 0 0 1 4.696 6.972 21.806 21.806 0 0 1 1.722 8.528Z" fill="#fff"/></svg>