<svg width="7" height="10" viewBox="0 0 7 10" fill="none" xmlns="http://www.w3.org/2000/svg">
<path d="M0.240319 9.80416C0.55965 10.0653 1.07449 10.0653 1.39382 9.80416L6.80942 5.3757C6.86983 5.3264 6.91776 5.26784 6.95046 5.20337C6.98317 5.1389 7 5.06979 7 5C7 4.93021 6.98317 4.8611 6.95046 4.79663C6.91776 4.73216 6.86983 4.6736 6.80942 4.6243L1.39382 0.195843C1.07449 -0.0652811 0.55965 -0.0652811 0.240319 0.195843C-0.0790118 0.456968 -0.0790118 0.877964 0.240319 1.13909L4.9586 5.00266L0.233802 8.86624C-0.0790119 9.12204 -0.0790118 9.54836 0.240319 9.80416Z" fill="#8C8C8C"/>
</svg>
