<svg width="53" height="49" viewBox="0 0 53 49" fill="none" xmlns="http://www.w3.org/2000/svg">
<path d="M7.52211 49H1.32743C0.975374 49 0.637737 48.8617 0.388795 48.6156C0.139854 48.3694 0 48.0356 0 47.6875V6.5625C0 6.2144 0.139854 5.88056 0.388795 5.63442C0.637737 5.38828 0.975374 5.25 1.32743 5.25H7.52211C7.87416 5.25 8.2118 5.38828 8.46074 5.63442C8.70968 5.88056 8.84954 6.2144 8.84954 6.5625V47.6875C8.84954 48.0356 8.70968 48.3694 8.46074 48.6156C8.2118 48.8617 7.87416 49 7.52211 49ZM24.7787 19.25V13.5625C24.7787 13.2144 24.6388 12.8806 24.3899 12.6344C24.141 12.3883 23.8033 12.25 23.4513 12.25H11.9469C11.5948 12.25 11.2572 12.3883 11.0082 12.6344C10.7593 12.8806 10.6194 13.2144 10.6194 13.5625V19.25H24.7787ZM10.6194 42V47.6875C10.6194 48.0356 10.7593 48.3694 11.0082 48.6156C11.2572 48.8617 11.5948 49 11.9469 49H23.4513C23.8033 49 24.141 48.8617 24.3899 48.6156C24.6388 48.3694 24.7787 48.0356 24.7787 47.6875V42H10.6194ZM10.6194 22.75H24.7787V38.5H10.6194V22.75ZM35.8406 49H27.876C27.524 49 27.1863 48.8617 26.9374 48.6156C26.6885 48.3694 26.5486 48.0356 26.5486 47.6875V1.3125C26.5486 0.964403 26.6885 0.630564 26.9374 0.384422C27.1863 0.138281 27.524 0 27.876 0H35.8406C36.1927 0 36.5303 0.138281 36.7793 0.384422C37.0282 0.630564 37.1681 0.964403 37.1681 1.3125V47.6875C37.1681 48.0356 37.0282 48.3694 36.7793 48.6156C36.5303 48.8617 36.1927 49 35.8406 49ZM39.0486 7.51406L42.3672 47.7455C42.3819 47.9219 42.4325 48.0935 42.5161 48.2501C42.5997 48.4067 42.7144 48.5449 42.8534 48.6565C42.9924 48.768 43.1528 48.8507 43.3249 48.8994C43.497 48.9481 43.6773 48.9618 43.855 48.9398L51.8373 47.9555C52.1771 47.9135 52.4874 47.7432 52.7032 47.4802C52.9191 47.2173 53.0238 46.882 52.9954 46.5445L49.668 6.47609C49.6534 6.30206 49.6037 6.13268 49.522 5.97785C49.4403 5.82303 49.3282 5.68588 49.1922 5.57444C49.0562 5.46301 48.8991 5.37953 48.7301 5.32889C48.5611 5.27824 48.3835 5.26147 48.2078 5.27953L40.2289 6.10094C39.8846 6.13772 39.5685 6.30607 39.348 6.57008C39.1275 6.83408 39.02 7.17283 39.0486 7.51406Z" fill="#868486"/>
</svg>
