<svg width="1024" height="1024" viewBox="0 0 1024 1024" fill="none" xmlns="http://www.w3.org/2000/svg">
<path d="M232 706H374C396.1 706 414 723.9 414 746V888H664V264H232V706Z" fill="#e1e1e1" fill-opacity="0.15"/>
<path d="M832 64H296C291.6 64 288 67.6 288 72V128C288 132.4 291.6 136 296 136H792V824C792 828.4 795.6 832 800 832H856C860.4 832 864 828.4 864 824V96C864 78.3 849.7 64 832 64Z" fill="#e1e1e1"/>
<path d="M704 192H192C174.3 192 160 206.3 160 224V754.7C160 763.2 163.4 771.3 169.4 777.3L342.7 950.6C344.9 952.8 347.4 954.6 350.1 956.1V958H354.3C357.8 959.3 361.5 960 365.3 960H704C721.7 960 736 945.7 736 928V224C736 206.3 721.7 192 704 192ZM350 856.2L263.9 770H350V856.2ZM664 888H414V746C414 723.9 396.1 706 374 706H232V264H664V888Z" fill="#e1e1e1"/>
</svg>
