<svg width="58" height="58" viewBox="0 0 58 58" fill="none" xmlns="http://www.w3.org/2000/svg">
<path opacity="0.2" d="M54.375 29C39.875 29 54.375 48.9375 39.875 48.9375H18.125C3.625 48.9375 18.125 29 3.625 29C18.125 29 3.625 9.0625 18.125 9.0625H39.875C54.375 9.0625 39.875 29 54.375 29Z" fill="#868486"/>
<path d="M9.78286 29C10.551 29.6318 11.1699 30.4256 11.5954 31.3245C12.6829 33.5675 12.6829 36.3089 12.6829 38.9688C12.6829 44.4765 12.9094 47.125 18.1204 47.125C18.6011 47.125 19.0621 47.316 19.402 47.6559C19.7419 47.9958 19.9329 48.4568 19.9329 48.9375C19.9329 49.4182 19.7419 49.8792 19.402 50.2191C19.0621 50.559 18.6011 50.75 18.1204 50.75C14.16 50.75 11.4775 49.3589 10.1454 46.613C9.05786 44.37 9.05786 41.6286 9.05786 38.9688C9.05786 33.461 8.8313 30.8125 3.62036 30.8125C3.13966 30.8125 2.67864 30.6215 2.33873 30.2816C1.99882 29.9417 1.80786 29.4807 1.80786 29C1.80786 28.5193 1.99882 28.0583 2.33873 27.7184C2.67864 27.3785 3.13966 27.1875 3.62036 27.1875C8.8313 27.1875 9.05786 24.539 9.05786 19.0312C9.05786 16.3759 9.05786 13.63 10.1454 11.387C11.4821 8.64109 14.1646 7.25 18.1249 7.25C18.6056 7.25 19.0666 7.44096 19.4065 7.78087C19.7464 8.12078 19.9374 8.5818 19.9374 9.0625C19.9374 9.54321 19.7464 10.0042 19.4065 10.3441C19.0666 10.684 18.6056 10.875 18.1249 10.875C12.914 10.875 12.6874 13.5235 12.6874 19.0312C12.6874 21.6866 12.6874 24.4325 11.5999 26.6755C11.1731 27.5749 10.5526 28.3687 9.78286 29ZM54.3749 27.1875C49.164 27.1875 48.9374 24.539 48.9374 19.0312C48.9374 16.3759 48.9374 13.63 47.8499 11.387C46.5177 8.64109 43.8352 7.25 39.8749 7.25C39.3942 7.25 38.9332 7.44096 38.5933 7.78087C38.2534 8.12078 38.0624 8.5818 38.0624 9.0625C38.0624 9.54321 38.2534 10.0042 38.5933 10.3441C38.9332 10.684 39.3942 10.875 39.8749 10.875C45.0858 10.875 45.3124 13.5235 45.3124 19.0312C45.3124 21.6866 45.3124 24.4325 46.3999 26.6755C46.8254 27.5744 47.4443 28.3682 48.2124 29C47.4443 29.6318 46.8254 30.4256 46.3999 31.3245C45.3124 33.5675 45.3124 36.3089 45.3124 38.9688C45.3124 44.4765 45.0858 47.125 39.8749 47.125C39.3942 47.125 38.9332 47.316 38.5933 47.6559C38.2534 47.9958 38.0624 48.4568 38.0624 48.9375C38.0624 49.4182 38.2534 49.8792 38.5933 50.2191C38.9332 50.559 39.3942 50.75 39.8749 50.75C43.8352 50.75 46.5177 49.3589 47.8499 46.613C48.9374 44.37 48.9374 41.6286 48.9374 38.9688C48.9374 33.461 49.164 30.8125 54.3749 30.8125C54.8556 30.8125 55.3166 30.6215 55.6565 30.2816C55.9964 29.9417 56.1874 29.4807 56.1874 29C56.1874 28.5193 55.9964 28.0583 55.6565 27.7184C55.3166 27.3785 54.8556 27.1875 54.3749 27.1875Z" fill="#868486"/>
</svg>
