<svg width="21" height="21" viewBox="0 0 21 21" fill="none" xmlns="http://www.w3.org/2000/svg">
<path d="M6.125 18.375V13.125M6.125 13.125V7.875M6.125 13.125H13.125C13.5891 13.125 14.0342 12.9406 14.3624 12.6124C14.6906 12.2842 14.875 11.8391 14.875 11.375V9.625" stroke="#EBEBEB" stroke-width="2" stroke-linecap="round" stroke-linejoin="round"/>
<path d="M6.125 7.875C7.57475 7.875 8.75 6.69975 8.75 5.25C8.75 3.80025 7.57475 2.625 6.125 2.625C4.67525 2.625 3.5 3.80025 3.5 5.25C3.5 6.69975 4.67525 7.875 6.125 7.875Z" fill="none" stroke="#EBEBEB" stroke-width="2" stroke-linecap="round" stroke-linejoin="round"/>
<path d="M14.875 9.625C16.3247 9.625 17.5 8.44975 17.5 7C17.5 5.55025 16.3247 4.375 14.875 4.375C13.4253 4.375 12.25 5.55025 12.25 7C12.25 8.44975 13.4253 9.625 14.875 9.625Z" fill="none" stroke="#EBEBEB" stroke-width="2" stroke-linecap="round" stroke-linejoin="round"/>
</svg>
