<svg width="21" height="21" viewBox="0 0 21 21" fill="none" xmlns="http://www.w3.org/2000/svg">
<path d="M3 8H17M3 14H17M10 19C14.438 19 18 15.474 18 11.036C18 6.598 14.438 3 10 3C5.562 3 2 6.598 2 11.036C2 15.474 5.562 19 10 19Z" stroke="#e1e1e1" stroke-linecap="round" stroke-linejoin="round"/>
<path fill-rule="evenodd" clip-rule="evenodd" d="M10 19C12.219 19 14 15.474 14 11.036C14 6.598 12.219 3 10 3C7.781 3 6 6.598 6 11.036C6 15.474 7.781 19 10 19Z" stroke="#e1e1e1" stroke-linecap="round" stroke-linejoin="round"/>
</svg>
