<svg width="48" height="48" viewBox="0 0 48 48" fill="none" xmlns="http://www.w3.org/2000/svg">
<path d="M47.3022 43.8943L43.8944 47.3021C43.4448 47.7491 42.8365 48 42.2026 48C41.5686 48 40.9603 47.7491 40.5107 47.3021L12.0009 18.8393C11.2206 19.0653 10.4135 19.1864 9.60114 19.1992C8.07319 19.1981 6.56757 18.8323 5.20947 18.1322C3.85136 17.432 2.68001 16.4177 1.79279 15.1737C0.905574 13.9297 0.32813 12.4918 0.108469 10.9797C-0.111192 9.46754 0.0332758 7.92481 0.529861 6.47974L6.62538 12.5755L7.89728 11.3036L11.305 7.89569L12.5769 6.62374L6.48139 0.527979C7.92639 0.0313746 9.46907 -0.113099 10.9811 0.106571C12.4932 0.326241 13.931 0.903707 15.175 1.79096C16.419 2.67821 17.4332 3.84961 18.1333 5.20777C18.8335 6.56593 19.1993 8.07161 19.2004 9.59962C19.1875 10.412 19.0665 11.2191 18.8404 11.9995L47.3022 40.5104C47.7491 40.96 48 41.5683 48 42.2023C48 42.8363 47.7491 43.4446 47.3022 43.8943ZM0.697847 40.5104C0.25088 40.96 0 41.5683 0 42.2023C0 42.8363 0.25088 43.4446 0.697847 43.8943L4.10558 47.3021C4.55521 47.7491 5.16345 48 5.79744 48C6.43144 48 7.03967 47.7491 7.48931 47.3021L20.6163 34.1986L13.8248 27.4069M43.1985 0L33.5992 4.79981V9.59962L28.3916 14.8074L33.1913 19.6072L38.3989 14.3994H43.1985L47.9981 4.79981L43.1985 0Z" fill="#868486"/>
</svg>
